<svg width="26" height="26" viewBox="0 0 26 26" fill="none" xmlns="http://www.w3.org/2000/svg">
<path d="M13 0.00115967C5.82105 0.00115967 0 5.82107 0 13.0006C0 20.1801 5.82048 26 13 26C20.1801 26 26 20.1801 26 13.0006C26 5.82107 20.1801 0.00115967 13 0.00115967ZM13 3.88814C15.3755 3.88814 17.3004 5.81364 17.3004 8.18797C17.3004 10.5629 15.3755 12.4878 13 12.4878C10.6257 12.4878 8.70074 10.5629 8.70074 8.18797C8.70074 5.81364 10.6257 3.88814 13 3.88814ZM12.9971 22.6013C10.628 22.6013 8.45805 21.7384 6.78437 20.3103C6.37666 19.9626 6.1414 19.4526 6.1414 18.9176C6.1414 16.5095 8.09031 14.5823 10.4989 14.5823H15.5022C17.9114 14.5823 19.8529 16.5095 19.8529 18.9176C19.8529 19.4532 19.6188 19.962 19.2105 20.3097C17.5374 21.7384 15.3669 22.6013 12.9971 22.6013Z" fill="#B7BBA2"/>
</svg>
