<svg width="20" height="20" viewBox="0 0 20 20" fill="none" xmlns="http://www.w3.org/2000/svg">
<g clip-path="url(#clip0_69_1114)">
<path d="M18.3336 9.06836C17.8736 9.06836 17.5002 8.69503 17.5002 8.23503C17.5002 5.89753 16.5902 3.70086 14.9377 2.04753C14.6119 1.72169 14.6119 1.19503 14.9377 0.869192C15.2636 0.543359 15.7902 0.543359 16.1161 0.869192C18.0836 2.83669 19.1669 5.45253 19.1669 8.23503C19.1669 8.69503 18.7936 9.06836 18.3336 9.06836Z" fill="#B7BBA2"/>
<path d="M1.66732 9.06836C1.20732 9.06836 0.833984 8.69503 0.833984 8.23503C0.833984 5.45253 1.91732 2.83669 3.88482 0.869192C4.21065 0.543359 4.73732 0.543359 5.06315 0.869192C5.38898 1.19503 5.38898 1.72169 5.06315 2.04753C3.41065 3.70003 2.50065 5.89753 2.50065 8.23503C2.50065 8.69503 2.12732 9.06836 1.66732 9.06836Z" fill="#B7BBA2"/>
<path d="M17.8152 14.0942C16.5552 13.0292 15.8327 11.4725 15.8327 9.82333V7.5C15.8327 4.5675 13.6544 2.14 10.8327 1.73333V0.833333C10.8327 0.3725 10.4594 0 9.99935 0C9.53935 0 9.16602 0.3725 9.16602 0.833333V1.73333C6.34352 2.14 4.16602 4.5675 4.16602 7.5V9.82333C4.16602 11.4725 3.44352 13.0292 2.17602 14.1008C1.85185 14.3783 1.66602 14.7817 1.66602 15.2083C1.66602 16.0125 2.32018 16.6667 3.12435 16.6667H16.8744C17.6785 16.6667 18.3327 16.0125 18.3327 15.2083C18.3327 14.7817 18.1469 14.3783 17.8152 14.0942Z" fill="#B7BBA2"/>
<path d="M9.99916 20C11.5083 20 12.7708 18.9242 13.0608 17.5H6.9375C7.2275 18.9242 8.49 20 9.99916 20Z" fill="#B7BBA2"/>
</g>
<defs>
<clipPath id="clip0_69_1114">
<rect width="20" height="20" fill="white"/>
</clipPath>
</defs>
</svg>
