<svg width="286" height="312" viewBox="0 0 286 312" fill="none" xmlns="http://www.w3.org/2000/svg">
<path d="M61.2851 107.537C72.2453 117.238 79.3133 129.944 81.7177 144.296L85.0018 164.026C85.5205 167.152 88.2226 169.443 91.3931 169.443H193.994C197.165 169.443 199.867 167.152 200.385 164.026L203.669 144.328C206.074 129.97 213.143 117.244 224.115 107.537C225.532 106.277 226.33 104.468 226.298 102.569C226.267 100.677 225.406 98.8928 223.944 97.6839C219.186 93.7608 213.497 91.6851 207.492 91.6851H149.174V78.7263H181.572C195.867 78.7263 207.492 67.1021 207.492 52.8069V26.8881C207.492 12.5929 195.867 0.96875 181.572 0.96875H103.815C89.5202 0.96875 77.8954 12.5929 77.8954 26.8881V52.8075C77.8954 67.1021 89.5202 78.7263 103.815 78.7263H136.214V91.6857H77.8954C71.8838 91.6857 66.1954 93.7614 61.4491 97.6906C59.9875 98.8995 59.1267 100.684 59.0951 102.576C59.0636 104.468 59.8612 106.285 61.2851 107.537Z" fill="#B7BBA2"/>
<path d="M265.81 104.647C241.264 104.647 220.508 122.232 216.452 146.461L210.466 182.404L74.9215 182.41L68.9354 146.443C64.8792 122.225 44.1234 104.647 19.5776 104.647C8.85796 104.647 0.138184 113.367 0.138184 124.086C0.138184 134.806 8.85796 143.525 19.5776 143.525C25.051 143.525 29.683 147.449 30.5882 152.84L36.5743 188.814C39.732 207.627 55.8618 221.283 74.9215 221.283H135.533L131.592 260.691C104.022 262.419 77.8957 270.59 77.8957 286.081C77.8951 303.888 111.484 312 142.693 312C173.903 312 207.491 303.888 207.491 286.081C207.491 270.59 181.365 262.418 153.795 260.69L149.854 221.282H210.466C229.525 221.282 245.655 207.62 248.813 188.788L254.799 152.858C255.704 147.448 260.336 143.524 265.81 143.524C276.529 143.524 285.249 134.804 285.249 124.085C285.249 113.366 276.529 104.647 265.81 104.647Z" fill="#A5AA8D"/>
</svg>
