<svg width="24" height="24" viewBox="0 0 24 24" fill="none" xmlns="http://www.w3.org/2000/svg">
<path d="M19.5702 11.1262C19.5698 11.1258 19.5695 11.1255 19.5691 11.1251L13.0417 4.442C12.7635 4.157 12.3936 4 12.0001 4C11.6066 4 11.2367 4.15687 10.9584 4.44187L4.43439 11.1216C4.43219 11.1238 4.42999 11.1262 4.42779 11.1285C3.85645 11.7168 3.85742 12.6714 4.4306 13.2583C4.69247 13.5266 5.03833 13.6819 5.40812 13.6982C5.42314 13.6997 5.43827 13.7004 5.45353 13.7004H5.71369V18.6188C5.71369 19.592 6.48709 20.3839 7.43787 20.3839H9.99159C10.2504 20.3839 10.4604 20.169 10.4604 19.9039V16.0479C10.4604 15.6038 10.8132 15.2426 11.247 15.2426H12.7532C13.187 15.2426 13.5398 15.6038 13.5398 16.0479V19.9039C13.5398 20.169 13.7497 20.3839 14.0086 20.3839H16.5623C17.5131 20.3839 18.2865 19.592 18.2865 18.6188V13.7004H18.5277C18.9211 13.7004 19.291 13.5436 19.5695 13.2586C20.1433 12.6707 20.1435 11.7145 19.5702 11.1262Z" fill="black"/>
</svg>
